<svg width="292" height="98" viewBox="0 0 292 98" fill="none" xmlns="http://www.w3.org/2000/svg">
<rect x="76" y="28" width="42" height="42" fill="#00A0E4" fill-opacity="0.46"/>
<path d="M99.9858 44.5653H103.523C103.472 41.4545 100.915 39.3068 97.0284 39.3068C93.2017 39.3068 90.3977 41.4205 90.4148 44.5909C90.4062 47.1648 92.2216 48.6392 95.1705 49.3466L97.071 49.8239C98.9716 50.2841 100.028 50.8295 100.037 52.0057C100.028 53.2841 98.8182 54.1534 96.9432 54.1534C95.0256 54.1534 93.6449 53.267 93.5256 51.5199H89.9545C90.0483 55.2955 92.75 57.2472 96.9858 57.2472C101.247 57.2472 103.753 55.2102 103.761 52.0142C103.753 49.108 101.562 47.5653 98.5284 46.8835L96.9602 46.5085C95.4432 46.1591 94.1733 45.5966 94.1989 44.3438C94.1989 43.2188 95.196 42.392 97.0028 42.392C98.767 42.392 99.8494 43.1932 99.9858 44.5653ZM108.417 61.8835C111.119 61.8835 112.559 60.5114 113.292 58.4148L118.38 43.9261L114.536 43.9091L111.8 53.5227H111.664L108.954 43.9091H105.136L109.832 57.375L109.619 57.929C109.107 59.1136 108.229 59.1989 106.951 58.7983L106.133 61.517C106.653 61.7301 107.496 61.8835 108.417 61.8835ZM120.238 57H123.869V49.142C123.869 47.6932 124.789 46.7301 125.999 46.7301C127.192 46.7301 127.994 47.5483 127.994 48.8352V57H131.513V49.0057C131.513 47.6506 132.289 46.7301 133.61 46.7301C134.769 46.7301 135.638 47.4545 135.638 48.9119V57H139.261V48.196C139.261 45.358 137.573 43.7386 135.136 43.7386C133.218 43.7386 131.727 44.7188 131.19 46.2188H131.053C130.636 44.7017 129.298 43.7386 127.499 43.7386C125.735 43.7386 124.397 44.6761 123.852 46.2188H123.698V43.9091H120.238V57ZM142.129 61.9091H145.759V54.9034H145.87C146.373 55.9943 147.472 57.2131 149.586 57.2131C152.569 57.2131 154.896 54.8523 154.896 50.4716C154.896 45.9716 152.467 43.7386 149.594 43.7386C147.404 43.7386 146.356 45.0426 145.87 46.108H145.708V43.9091H142.129V61.9091ZM145.683 50.4545C145.683 48.1193 146.671 46.6278 148.435 46.6278C150.234 46.6278 151.188 48.1875 151.188 50.4545C151.188 52.7386 150.217 54.3239 148.435 54.3239C146.688 54.3239 145.683 52.7898 145.683 50.4545ZM160.947 49.4318C160.955 47.7443 161.987 46.7557 163.469 46.7557C164.944 46.7557 165.813 47.7017 165.805 49.3125V57H169.435V48.6648C169.444 45.5966 167.637 43.7386 164.91 43.7386C162.924 43.7386 161.594 44.6761 160.998 46.2188H160.844V39.5455H157.316V57H160.947V49.4318ZM178.207 57.2557C182.179 57.2557 184.651 54.5369 184.651 50.5057C184.651 46.4489 182.179 43.7386 178.207 43.7386C174.236 43.7386 171.764 46.4489 171.764 50.5057C171.764 54.5369 174.236 57.2557 178.207 57.2557ZM178.224 54.4432C176.392 54.4432 175.455 52.7642 175.455 50.4801C175.455 48.196 176.392 46.5085 178.224 46.5085C180.023 46.5085 180.96 48.196 180.96 50.4801C180.96 52.7642 180.023 54.4432 178.224 54.4432ZM190.642 49.4318C190.651 47.7443 191.656 46.7557 193.122 46.7557C194.58 46.7557 195.457 47.7102 195.449 49.3125V57H199.08V48.6648C199.08 45.6136 197.29 43.7386 194.562 43.7386C192.619 43.7386 191.213 44.6932 190.625 46.2188H190.472V43.9091H187.011V57H190.642V49.4318ZM203.714 61.8835C206.415 61.8835 207.856 60.5114 208.589 58.4148L213.677 43.9261L209.833 43.9091L207.097 53.5227H206.961L204.251 43.9091H200.433L205.129 57.375L204.915 57.929C204.404 59.1136 203.526 59.1989 202.248 58.7983L201.43 61.517C201.95 61.7301 202.793 61.8835 203.714 61.8835Z" fill="#00A0E4"/>
</svg>
