<svg width="292" height="98" viewBox="0 0 292 98" fill="none" xmlns="http://www.w3.org/2000/svg">
<path d="M138.918 46.6562C138.432 42.625 135.381 40.3068 131.341 40.3068C126.73 40.3068 123.21 43.5625 123.21 49.2727C123.21 54.9659 126.67 58.2386 131.341 58.2386C135.815 58.2386 138.517 55.2642 138.918 52.0511L135.185 52.0341C134.835 53.9006 133.369 54.9744 131.401 54.9744C128.75 54.9744 126.952 53.0057 126.952 49.2727C126.952 45.642 128.724 43.571 131.426 43.571C133.446 43.571 134.903 44.7386 135.185 46.6562H138.918ZM148.459 44.9091H145.996V41.7727H142.365V44.9091H140.575V47.6364H142.365V54.4545C142.348 57.0199 144.095 58.2898 146.729 58.179C147.666 58.1449 148.331 57.9574 148.697 57.8381L148.126 55.1364C147.947 55.1705 147.564 55.2557 147.223 55.2557C146.499 55.2557 145.996 54.983 145.996 53.9773V47.6364H148.459V44.9091ZM150.824 58H154.455V50.5938C154.455 48.983 155.631 47.875 157.233 47.875C157.736 47.875 158.426 47.9602 158.767 48.071V44.8494C158.443 44.7727 157.991 44.7216 157.625 44.7216C156.159 44.7216 154.957 45.5739 154.48 47.1932H154.344V44.9091H150.824V58ZM164.275 40.5455H160.644V58H164.275V40.5455Z" fill="#00A0E4"/>
<path d="M146 26L166.785 68H125.215L146 26Z" fill="#00A0E4" fill-opacity="0.46"/>
</svg>
